<?xml version="1.0" standalone="no"?>
<!DOCTYPE svg PUBLIC "-//W3C//DTD SVG 20010904//EN"
 "http://www.w3.org/TR/2001/REC-SVG-20010904/DTD/svg10.dtd">
<svg version="1.0" xmlns="http://www.w3.org/2000/svg"
 width="128.000000pt" height="128.000000pt" viewBox="0 0 128.000000 128.000000"
 preserveAspectRatio="xMidYMid meet">

<g transform="translate(0.000000,128.000000) scale(0.100000,-0.100000)"
fill="#000000" stroke="none">
<path d="M340 1238 c0 -6 32 -61 72 -122 62 -95 71 -115 69 -150 -1 -23 -4
-49 -7 -58 -3 -12 12 -29 51 -59 52 -39 55 -44 55 -86 l0 -45 -66 7 c-37 4
-112 18 -168 32 -129 31 -236 35 -265 9 -48 -43 -12 -93 88 -123 73 -22 246
-22 315 0 l49 16 -25 -27 c-14 -15 -39 -68 -57 -118 -29 -81 -44 -106 -128
-209 -64 -78 -92 -120 -85 -127 6 -6 42 30 108 111 86 106 102 131 130 212 30
83 64 139 85 139 4 0 -3 -27 -17 -60 -19 -47 -24 -78 -24 -145 l0 -85 -75
-150 c-41 -82 -75 -154 -75 -160 0 -35 30 10 100 151 l81 160 -6 72 c-5 59 -2
79 14 112 l19 40 1 -86 c1 -95 14 -119 63 -119 44 0 58 27 59 121 l1 84 19
-40 c16 -33 18 -53 14 -111 l-6 -71 80 -162 c71 -141 101 -186 101 -151 0 6
-34 78 -75 160 l-75 150 0 83 c0 64 -5 97 -24 145 -14 34 -21 62 -17 62 21 0
55 -56 84 -138 29 -80 45 -106 131 -212 66 -82 102 -118 108 -112 7 7 -21 49
-85 127 -84 103 -99 128 -128 209 -18 50 -43 103 -57 118 l-25 27 49 -16 c69
-22 242 -22 315 0 100 30 136 80 88 123 -29 26 -136 22 -265 -9 -56 -14 -131
-28 -168 -32 l-66 -7 0 43 c0 42 3 47 55 88 38 29 54 48 51 59 -3 10 -6 36 -8
59 -2 36 7 54 70 150 40 60 72 114 72 121 0 29 -23 4 -95 -105 l-77 -118 5
-57 c5 -56 5 -57 -34 -87 -37 -31 -40 -31 -64 -15 -22 15 -25 23 -25 80 0 36
-4 64 -10 64 -6 0 -10 -28 -10 -64 0 -57 -3 -65 -25 -80 -24 -16 -27 -16 -64
15 -39 30 -39 31 -34 87 l5 57 -77 118 c-72 109 -95 134 -95 105z m328 -425
c3 -20 -1 -23 -27 -23 -23 0 -31 5 -31 18 0 25 10 33 35 30 12 -2 21 -12 23
-25z m-311 -88 c61 -14 123 -25 137 -25 42 0 30 -17 -21 -30 -151 -38 -370 -8
-381 53 -8 43 80 44 265 2z m313 5 c0 -27 -3 -30 -30 -30 -27 0 -30 3 -30 30
0 27 3 30 30 30 27 0 30 -3 30 -30z m513 11 c19 -19 -4 -44 -59 -65 -36 -14
-76 -19 -154 -20 -97 -1 -210 17 -210 33 0 3 33 12 73 19 39 7 110 21 157 32
89 20 173 21 193 1z m-513 -110 c0 -34 -12 -45 -40 -36 -14 4 -20 15 -20 36 0
26 3 29 30 29 27 0 30 -3 30 -29z m0 -101 c0 -27 -3 -30 -30 -30 -27 0 -30 3
-30 30 0 27 3 30 30 30 27 0 30 -3 30 -30z m-2 -94 c-2 -26 -7 -31 -28 -31
-21 0 -26 5 -28 32 -3 30 -1 32 28 31 29 -1 31 -4 28 -32z"/>
</g>
</svg>
