<?xml version="1.0" standalone="no"?>
<!DOCTYPE svg PUBLIC "-//W3C//DTD SVG 20010904//EN"
 "http://www.w3.org/TR/2001/REC-SVG-20010904/DTD/svg10.dtd">
<svg version="1.0" xmlns="http://www.w3.org/2000/svg"
 width="414.000000pt" height="411.000000pt" viewBox="0 0 414.000000 411.000000"
 preserveAspectRatio="xMidYMid meet">

<g transform="translate(0.000000,411.000000) scale(0.100000,-0.100000)"
fill="#000000" stroke="none">
<path d="M1750 4089 c-279 -42 -592 -163 -822 -316 -494 -330 -822 -844 -908
-1423 -59 -400 3 -822 174 -1184 172 -364 459 -684 796 -888 71 -43 302 -158
317 -158 4 0 37 -11 73 -24 248 -92 297 -99 730 -94 351 4 356 4 455 32 486
134 870 388 1150 761 285 380 419 780 419 1250 -1 330 -48 546 -186 853 -289
639 -885 1089 -1578 1192 -178 26 -442 26 -620 -1z m1570 -735 c85 -40 232
-136 248 -163 29 -50 2 -97 -71 -120 -116 -37 -924 -121 -1165 -121 -112 0
-226 -21 -282 -52 -19 -10 -26 -16 -15 -14 91 23 131 28 205 29 212 0 474 -91
658 -229 147 -111 603 -589 693 -727 44 -68 54 -103 39 -141 -10 -27 -12 -28
-68 -24 -42 3 -83 17 -154 53 -54 26 -98 50 -98 53 0 3 15 23 33 46 54 67 52
70 -13 20 l-62 -48 -61 32 c-34 18 -68 36 -76 41 -10 7 -1 24 43 75 31 36 56
69 56 72 0 3 -26 -16 -57 -42 -89 -72 -90 -72 -167 -29 -59 33 -82 55 -58 55
10 0 115 106 139 140 l18 25 -30 -23 c-94 -72 -170 -122 -186 -122 -17 0 -149
67 -149 76 0 2 20 24 44 48 42 44 116 147 116 162 0 4 -38 -30 -85 -75 -109
-105 -122 -111 -172 -80 -76 46 -134 92 -126 99 4 3 20 16 35 27 42 32 117
123 145 177 l25 49 -58 -63 c-67 -72 -168 -150 -194 -150 -22 0 -94 79 -121
132 -10 21 -19 57 -19 80 0 133 -55 164 -117 65 -14 -23 -62 -79 -106 -125
-75 -76 -80 -84 -71 -109 5 -16 19 -29 33 -33 l24 -5 -27 -32 c-21 -25 -114
-73 -141 -73 -3 0 -5 19 -5 43 l1 42 14 -27 c11 -19 20 -25 35 -21 42 11 45
28 20 136 -27 121 -41 147 -76 147 -32 0 -49 -39 -59 -133 -4 -40 -11 -65 -16
-60 -5 5 -14 49 -20 99 -12 93 -29 134 -55 134 -22 0 -68 -51 -81 -91 -6 -19
-23 -61 -37 -94 -22 -52 -29 -60 -53 -61 -52 -1 -53 -3 -53 -47 0 -61 -41
-115 -105 -137 -18 -6 -39 -25 -51 -48 -83 -144 -355 -356 -536 -416 -116 -39
-165 -32 -56 8 54 20 189 100 268 159 84 63 202 186 230 240 l25 48 -33 27
c-19 15 -63 38 -99 51 -65 24 -133 78 -133 106 0 22 9 19 51 -20 22 -19 47
-35 57 -35 9 0 27 -3 38 -6 20 -5 22 -1 27 53 4 48 0 70 -23 128 -16 39 -41
119 -55 179 -24 96 -27 124 -23 230 4 98 9 131 27 174 13 28 28 52 33 52 6 0
8 -6 5 -14 -41 -105 -42 -284 -4 -427 25 -94 66 -191 87 -204 6 -4 27 1 47 10
34 17 95 17 133 1 22 -9 85 79 93 129 14 81 28 113 73 159 70 71 202 139 339
175 60 16 61 14 14 -28 -65 -58 -43 -58 26 0 87 72 303 178 520 254 28 10 73
26 100 37 54 19 88 29 290 82 171 45 167 45 265 42 71 -2 96 -7 150 -32z
m-1020 -703 c0 -96 32 -248 120 -571 17 -63 38 -145 45 -182 23 -105 83 -217
291 -535 58 -90 103 -140 260 -294 104 -103 203 -194 219 -203 17 -9 86 -39
155 -66 125 -49 132 -64 16 -35 -157 40 -187 58 -365 226 -91 85 -185 173
-208 193 -47 42 -266 365 -337 496 -30 57 -56 128 -80 215 -19 72 -51 186 -71
255 -52 173 -85 314 -92 386 l-6 61 -83 -85 c-71 -74 -85 -84 -98 -73 -26 22
-19 36 45 92 33 29 79 80 101 113 23 34 46 64 52 68 20 13 36 -15 36 -61z
m-516 -28 c3 -10 10 -55 15 -101 6 -45 15 -91 20 -101 11 -19 -3 -41 -25 -41
-16 0 -34 54 -34 101 0 45 -15 52 -24 12 -4 -16 -62 -138 -129 -272 -113 -227
-128 -252 -206 -340 -131 -148 -334 -346 -397 -386 -31 -20 -118 -67 -193
-105 -113 -57 -154 -72 -241 -89 -145 -28 -230 -37 -230 -22 0 6 7 11 16 11
14 0 121 28 264 71 60 17 138 54 265 124 28 16 68 37 89 48 47 23 205 174 363
347 110 120 118 132 193 285 43 88 106 225 140 305 34 79 66 150 72 157 15 18
36 16 42 -4z m155 -31 c5 -9 16 -51 25 -92 9 -41 18 -85 22 -96 4 -14 0 -23
-11 -28 -12 -4 -20 3 -31 29 -7 19 -14 39 -14 45 0 5 -3 10 -7 10 -5 0 -16
-56 -26 -125 -44 -319 -106 -553 -223 -842 -96 -238 -125 -290 -213 -380 -120
-123 -217 -210 -280 -250 -76 -49 -221 -116 -309 -143 -85 -26 -117 -22 -47 6
93 37 266 124 327 165 89 61 345 314 374 370 63 125 220 547 254 684 40 159
70 330 86 478 8 83 20 159 25 169 12 23 36 23 48 0z m-175 -221 c6 -9 20 -11
42 -8 33 6 34 5 28 -21 -4 -15 -8 -29 -10 -31 -2 -2 -27 2 -56 10 -49 14 -53
17 -52 44 1 17 8 44 15 60 l12 30 7 -35 c3 -20 10 -42 14 -49z"/>
<path d="M1306 2384 c-19 -18 -21 -55 -4 -72 7 -7 24 -12 38 -12 51 0 69 55
28 84 -28 20 -43 20 -62 0z"/>
</g>
</svg>
